<svg width="16" height="17" viewBox="0 0 16 17" fill="none" xmlns="http://www.w3.org/2000/svg">
<g clip-path="url(#clip0_103_3509)">
<path d="M8 0.5C3.58175 0.5 0 4.08175 0 8.5C0 12.9185 3.58175 16.5 8 16.5C12.4185 16.5 16 12.9185 16 8.5C16 4.08175 12.4185 0.5 8 0.5ZM8 15.5157C4.14025 15.5157 1 12.3597 1 8.49997C1 4.64022 4.14025 1.49997 8 1.49997C11.8597 1.49997 15 4.64023 15 8.49997C15 12.3597 11.8597 15.5157 8 15.5157ZM11.1927 5.57275L6.49898 10.296L4.38523 8.18225C4.18998 7.987 3.87348 7.987 3.67798 8.18225C3.48273 8.3775 3.48273 8.694 3.67798 8.88925L6.15273 11.3643C6.34798 11.5592 6.66448 11.5592 6.85998 11.3643C6.88248 11.3418 6.90175 11.3172 6.91925 11.2917L11.9003 6.27998C12.0953 6.08473 12.0953 5.76823 11.9003 5.57275C11.7048 5.3775 11.3883 5.3775 11.1927 5.57275Z" fill="#285FEF"/>
</g>
<defs>
<clipPath id="clip0_103_3509">
<rect width="16" height="16" fill="white" transform="translate(0 0.5)"/>
</clipPath>
</defs>
</svg>
