<svg width="32" height="50" viewBox="0 0 32 32" fill="none" xmlns="http://www.w3.org/2000/svg">
<rect width="32" height="32" rx="4" fill="#285FEF"/>
<path d="M25.531 11.2806L13.531 23.2806C13.4614 23.3503 13.3787 23.4056 13.2876 23.4433C13.1966 23.4811 13.099 23.5005 13.0004 23.5005C12.9019 23.5005 12.8043 23.4811 12.7132 23.4433C12.6222 23.4056 12.5394 23.3503 12.4698 23.2806L7.21979 18.0306C7.07906 17.8898 7 17.699 7 17.4999C7 17.3009 7.07906 17.11 7.21979 16.9693C7.36052 16.8286 7.55139 16.7495 7.75042 16.7495C7.94944 16.7495 8.14031 16.8286 8.28104 16.9693L13.0004 21.6896L24.4698 10.2193C24.6105 10.0786 24.8014 9.99951 25.0004 9.99951C25.1994 9.99951 25.3903 10.0786 25.531 10.2193C25.6718 10.36 25.7508 10.5509 25.7508 10.7499C25.7508 10.949 25.6718 11.1398 25.531 11.2806Z" fill="white"/>
</svg>
