<svg width="101" height="113" viewBox="0 0 131 113" fill="none" xmlns="http://www.w3.org/2000/svg">
<path fill-rule="evenodd" clip-rule="evenodd" d="M20.0142 97.6556C16.2821 92.7495 17.3467 88.9476 17.4357 84.3244C17.51 80.4625 24.1256 72.4922 29.5482 77.5835C31.1435 79.0813 31.157 80.8876 34.0094 81.8249C40.9144 84.0941 35.5686 77.0399 35.2455 74.988C35.0878 73.9871 33.6406 71.962 33.6977 70.9414C33.7576 69.8704 35.1223 68.0146 34.5678 65.972C34.0133 63.9294 30.2507 64.0701 29.1237 63.8271C19.1089 61.6678 11.4875 55.6819 13.2516 51.1723C15.7094 44.8893 33.1953 49.1954 37.9798 48.7595C38.0417 48.7538 37.7226 44.3526 38.1301 43.2193C38.9454 40.9517 39.9165 38.7037 41.2565 36.6904C41.8568 35.7886 42.8098 35.0797 43.8233 34.6658C46.8565 33.4272 49.9825 32.2446 53.2363 31.7984C54.3861 31.6407 58.9736 22.3777 60.9001 19.273C75.6803 -4.54707 121.616 7.77098 108.314 44.295C105.869 51.0081 101.264 54.1431 101.15 56.3197C100.897 61.1543 109.94 58.1645 113.966 57.6217C120.845 56.6943 125.038 59.1926 122.466 66.0246C120.864 70.2807 105.708 74.0451 98.3874 73.183C95.6702 72.863 91.4934 69.4512 90.1085 73.5072C89.1543 76.3018 84.2872 82.9737 78.372 87.5741C75.702 89.6506 72.0523 89.7732 69.7878 91.5962C66.6003 94.1623 57.7381 103.755 53.2283 104.932C48.6865 106.117 41.3541 102.291 40.5788 102.116C39.3969 101.851 30.9632 102.409 25.3752 97.4482C23.6854 95.9479 21.3803 99.4515 20.0142 97.6556Z" fill="white"/>
<path fill-rule="evenodd" clip-rule="evenodd" d="M38.2807 77.272C38.7006 79.2009 37.7633 81.6533 35.7732 81.9321C34.6344 81.1717 33.6201 80.1236 32.6176 79.0877C30.6925 77.0983 28.8111 75.1541 26.1758 75.3804C23.5873 75.6027 21.7684 77.9892 20.7561 80.337C19.2899 83.7374 18.7746 87.527 19.2811 91.1855C19.5788 93.3364 21.2321 95.995 23.295 95.2107C25.6514 94.3149 27.8862 95.7371 30.1592 97.1836C32.263 98.5225 34.3995 99.8822 36.6955 99.4441C39.4292 98.9224 42.0507 99.9274 44.7043 100.945C46.4767 101.624 48.2633 102.309 50.1073 102.549C53.5762 102.999 57.1135 101.812 60.0048 99.8785C62.8961 97.9448 65.2206 95.3082 67.3608 92.5922L67.473 92.4497C68.6409 90.966 69.8635 89.4128 71.6215 88.6938C80.6109 85.0175 87.828 77.3844 90.8905 68.314C99.7616 72.1391 110.52 71.4276 118.788 66.469C120.19 65.6276 121.562 64.6326 122.394 63.2413C123.226 61.8501 123.404 59.9806 122.453 58.6652C121.412 57.2267 119.365 56.8457 117.585 57.0907C116.609 57.225 115.665 57.5073 114.721 57.7898C113.942 58.0227 113.163 58.2557 112.365 58.406C107.534 59.3162 102.714 57.1393 98.2942 55.0207C103.071 52.0958 106.222 47.0614 107.762 41.7474C109.302 36.4334 109.376 30.8187 109.093 25.301C108.943 22.3974 108.546 19.1862 106.314 17.2744C105.315 16.4187 104.058 15.9307 102.805 15.4443C101.395 14.8967 99.9897 14.3512 98.9647 13.2854C96.9933 11.2353 94.0323 10.4878 91.2383 9.83219C83.9265 8.11636 75.6376 6.54994 69.362 10.6116C66.9175 12.1937 65.0575 14.4873 63.2508 16.7485C60.2505 20.5033 57.113 24.8081 57.6354 29.5516C50.7623 28.4606 43.4015 32.6896 41.0082 39.1042C40.4608 40.5714 40.153 42.1121 39.8455 43.6512C39.4835 45.4632 39.122 47.273 38.3703 48.9582C33.2854 48.1161 28.1648 47.4808 23.0262 47.0547C20.748 46.8657 18.0883 46.8677 16.6404 48.6037C15.4794 49.9956 15.5803 52.106 16.4603 53.6838C17.3403 55.2615 18.8547 56.3983 20.4074 57.3545C23.776 59.4288 27.5404 60.8821 31.4465 61.6161C31.5724 61.6397 31.6989 61.6628 31.8258 61.6861L31.8264 61.6862C33.0477 61.9095 34.3032 62.1391 35.2773 62.8804C36.3528 63.6988 36.8685 65.4036 35.9364 66.3767C34.5596 67.8139 34.8686 70.1508 35.7163 71.9393C36.006 72.5504 36.348 73.1413 36.6897 73.7314C37.3478 74.8683 38.0043 76.0022 38.2807 77.272ZM85.7982 75.6038C82.8034 80.9729 77.6334 85.0071 71.8504 87.3026C66.0674 89.5982 59.7006 90.2421 53.4749 89.851C55.0117 89.4484 55.5873 87.1837 54.4229 86.1204C52.2514 90.5451 47.9082 93.4864 43.7514 96.2223C39.9961 98.6939 34.7814 98.974 30.9084 96.6838C27.0354 94.3937 24.8404 89.549 25.96 85.2505C26.4467 83.3821 27.6366 81.5555 29.4857 80.9014C31.3348 80.2474 33.7905 81.2544 34.1186 83.1558C33.0168 83.2514 32.1468 84.4186 32.3879 85.4777C36.3449 83.9826 39.5532 80.6915 40.8993 76.7465C41.3639 75.3849 41.6134 73.9688 41.8632 72.5514C42.0309 71.5998 42.1987 70.6477 42.4318 69.7111C43.0119 67.3795 44.1115 65.0141 46.1754 63.7258C47.8319 62.6918 49.8718 62.4924 51.8273 62.3201L60.5143 61.5548C60.993 60.866 59.7572 60.2852 58.9086 60.3305C56.1684 60.4767 53.4475 60.8365 50.7263 61.1963L50.7262 61.1963L50.7261 61.1963L50.7261 61.1963L50.726 61.1963C48.2025 61.53 45.6789 61.8637 43.1395 62.0272C37.8616 62.3668 32.3399 61.9083 27.7372 59.3516C29.8336 57.3074 31.0726 54.4409 31.1131 51.5414C31.1213 50.9548 30.5055 50.1556 30.1497 50.6271C30.109 52.5132 30.0454 54.4858 29.1076 56.1328C28.1698 57.7797 26.0562 58.9478 24.2878 58.2072C21.9921 57.2457 19.5628 56.1773 18.2009 54.1249C16.8391 52.0725 17.2079 48.7418 19.5287 47.8402C20.5704 47.4354 21.7399 47.5967 22.8473 47.764L34.0191 49.4523C37.3441 49.9548 40.7169 50.4585 44.0592 50.0828C46.406 49.8189 48.6778 49.1273 50.9334 48.439L57.3278 46.488C57.5892 46.4082 57.8571 46.3252 58.0728 46.1598C58.6486 45.7182 58.6576 44.8822 58.6167 44.1663C58.122 35.499 58.0999 26.2216 62.8686 18.9093C65.0025 15.6373 68.0332 12.9342 71.5559 11.1612C75.0284 9.41344 79.1572 8.58164 82.8731 9.75237C77.6548 11.5275 73.0842 15.0801 70.129 19.6579C68.0138 18.3634 65.3314 20.5742 64.5556 22.8986C63.353 26.5019 64.5481 30.7585 67.4617 33.2492C69.9142 35.3459 71.3943 38.2254 72.8778 41.1116C74.2412 43.7641 75.6075 46.4223 77.7342 48.4837C81.0987 51.7447 86.0832 53.0997 90.7943 52.6926C95.5055 52.2854 99.9549 50.2623 103.807 47.5698C100.29 53.5079 93.079 57.128 86.1128 56.4531C85.6051 56.4039 85.0946 56.3342 84.5834 56.2644L84.5833 56.2644L84.5832 56.2644L84.5831 56.2644L84.5828 56.2643C82.9643 56.0434 81.3402 55.8217 79.7841 56.2475C80.9565 56.9587 82.3182 57.3667 83.6955 57.4195C82.8845 60.2213 81.9899 62.9998 81.0133 65.7503C80.8883 66.1021 80.7401 66.4809 80.4151 66.6738C80.0531 66.8886 79.5912 66.8039 79.1807 66.7033C75.7866 65.872 72.5521 64.4182 69.6939 62.4394L66.7629 68.7465C69.7122 70.8334 72.9556 72.5195 76.3719 73.7417C73.7997 79.3897 68.8134 83.9335 62.8828 86.0339C69.2515 84.706 74.8277 80.1523 77.3144 74.2486C80.0933 74.9486 82.9365 75.4027 85.7982 75.6038ZM93.3187 24.9138C94.3039 23.0656 94.2425 20.8095 93.5776 18.8284C92.9128 16.8473 91.6977 15.0925 90.4263 13.4209C92.3524 12.6699 94.5729 12.8781 96.4835 13.6663C98.3941 14.4544 100.028 15.7792 101.47 17.2399C103.218 19.0107 104.736 21.0227 105.767 23.2703C108.196 28.5625 107.749 34.7224 106.257 40.3389C105.968 41.4294 105.635 42.5243 105.042 43.4895C104.444 44.4614 103.604 45.2675 102.716 45.9944C99.0506 48.994 94.3886 50.8015 89.6235 51.0702C91.8679 47.9609 93.0236 44.1834 93.3828 40.3898C93.7421 36.5961 93.3391 32.7691 92.6856 29.0135L92.682 28.9924C92.5172 28.0454 92.3439 27.0501 92.6738 26.1463C92.783 25.8471 92.9435 25.5705 93.1042 25.2938L93.1042 25.2937L93.1044 25.2933C93.1774 25.1676 93.2505 25.0417 93.3187 24.9138ZM92.2452 41.5479C91.776 44.7289 90.5599 47.855 88.4221 50.2905C88.1717 50.5757 87.8969 50.8596 87.5401 50.998C87.2251 51.1203 86.8758 51.1174 86.5374 51.1023C84.1285 50.9948 81.6978 50.3236 79.7813 48.8877C79.0859 48.3667 78.4671 47.7532 77.8887 47.109C73.6765 42.4168 71.6262 35.9243 72.3966 29.7176C72.4334 29.4211 72.5085 29.0794 72.7817 28.9479C73.1351 28.7777 73.5233 29.0774 73.8174 29.3342C76.2212 31.4328 79.7735 31.885 82.9161 31.2068C86.0586 30.5286 88.8791 28.864 91.5595 27.1175C91.3724 28.5456 91.6165 29.9844 91.8583 31.4096L91.8583 31.4098L91.8585 31.4109L91.8588 31.4123C91.8891 31.5909 91.9194 31.7694 91.9487 31.9475C92.4719 35.1204 92.7144 38.3669 92.2452 41.5479ZM84.4107 15.1824C85.904 14.4126 87.7321 13.8304 89.2362 14.5798C89.722 14.8218 90.1334 15.1876 90.498 15.5848C92.7853 18.0759 93.2272 22.0285 91.5449 24.9469C89.6 28.3207 85.4919 29.8665 81.6019 30.5428C80.2061 30.7855 78.7465 30.9462 77.3895 30.5441C75.6337 30.0237 74.3035 28.6458 73.0602 27.3229C75.6347 22.3469 79.3758 17.7782 84.4107 15.1824ZM110.434 60.3297C110.27 61.6954 110.107 63.0791 110.302 64.4408C110.496 65.8025 111.093 67.1626 112.199 68.0081C105.513 70.1494 98.0604 69.8984 91.5403 67.3123C92.6319 64.4222 93.2859 61.3735 93.4742 58.2969C93.5486 57.0816 94.8632 56.2393 96.1032 56.1921C97.2448 56.1487 98.3331 56.5903 99.3946 57.021L99.5082 57.0671L99.6684 57.1318C103.141 58.5284 106.794 59.4314 110.434 60.3297ZM67.5981 89.5896C66.8489 91.0513 65.8363 92.3666 64.7811 93.6335C62.5786 96.2778 60.0815 98.8107 56.9194 100.238C52.2852 102.33 46.4794 101.645 42.482 98.5365L52.0241 91.8907C52.2526 91.7316 52.4897 91.5686 52.7641 91.513C52.9191 91.4815 53.0777 91.4861 53.2365 91.4907C53.3423 91.4938 53.4482 91.4969 53.5533 91.4893C53.9106 91.4636 54.2387 91.3185 54.5682 91.1728C54.7732 91.0821 54.9788 90.9911 55.1924 90.9286C55.9791 90.698 56.8044 90.8631 57.6209 91.0265L57.621 91.0265C57.8283 91.068 58.035 91.1093 58.2404 91.1441C61.394 91.6776 64.5775 90.626 67.5981 89.5896ZM40.2278 49.113C40.1086 48.9686 40.1362 48.7595 40.1711 48.577C41.1305 43.5518 42.8799 38.6725 45.3383 34.1647C48.651 36.8273 51.309 40.2687 53.0256 44.118C53.3688 44.8874 53.5344 46.0322 52.7408 46.3471C48.937 47.8563 44.9157 48.837 40.8344 49.2509C40.6186 49.2728 40.3643 49.2783 40.2278 49.113ZM54.9718 44.9658C52.9755 40.808 50.1502 37.0351 46.7027 33.9233C48.4713 32.3232 50.8984 31.6704 53.2251 31.0701C54.6945 30.691 56.311 30.3229 57.6831 30.9633L57.0615 40.1235C56.956 41.6786 56.8551 43.2754 57.3257 44.7639L55.499 45.2722C55.4339 45.2903 55.3666 45.3085 55.2996 45.2996C55.1365 45.2778 55.0419 45.1119 54.9718 44.9658ZM84.4142 60.299C84.6807 59.3583 84.9092 58.3682 84.7026 57.413C87.1606 57.808 89.7081 57.6564 92.0993 56.9726C92.4747 56.8653 92.6163 57.4401 92.5532 57.8187C92.3624 58.9641 92.1714 60.1108 91.8972 61.2399C91.6159 62.3988 91.2479 63.5354 90.8803 64.6708L89.9991 67.3923C89.8785 67.7648 89.7531 68.1462 89.507 68.4536C88.8466 69.2783 87.5886 69.2934 86.5335 69.1243C84.7835 68.8438 83.0844 68.2603 81.5382 67.4086C82.7509 65.1481 83.7168 62.7602 84.4142 60.299ZM28.1983 77.1408C29.1208 77.6701 29.8464 78.4679 30.5556 79.2524L28.4567 80.1278C27.7573 80.4194 27.0412 80.7218 26.4933 81.2385C25.9603 81.7411 25.6258 82.4111 25.3546 83.0859C24.2205 85.9081 24.0301 89.0868 24.8197 92.0199C25.1049 93.0793 24.0344 94.1679 22.9176 94.1723C21.8008 94.1766 20.8154 93.3446 20.3516 92.3478C19.8877 91.3511 19.8521 90.2172 19.8962 89.1224C20.0516 85.2694 21.1454 81.3831 23.4832 78.2835C23.9298 77.6912 24.4437 77.1118 25.1298 76.8122C26.1062 76.3858 27.2757 76.6114 28.1983 77.1408ZM121.437 59.1593C121.776 59.4114 122.068 59.75 122.166 60.156C122.293 60.6806 122.08 61.2251 121.821 61.7007C120.316 64.4653 117.284 66.0651 114.315 67.2215C114.119 67.2978 113.913 67.3742 113.704 67.351C113.532 67.3319 113.375 67.2469 113.23 67.1533C112.269 66.5304 111.666 65.4662 111.43 64.3601C111.194 63.254 111.293 62.1035 111.503 60.9923C111.547 60.7582 111.604 60.5097 111.779 60.3446C111.918 60.2129 112.112 60.155 112.298 60.1013L115.982 59.0364C116.889 58.7741 117.806 58.5101 118.751 58.4613C119.695 58.4125 120.684 58.5985 121.437 59.1593ZM70.7497 35.5693C68.4918 33.216 66.5601 30.562 65.0242 27.7029L65.2004 25.9428C65.5665 24.3101 66.1566 22.7259 66.9497 21.2464C67.2727 20.6438 68.0458 20.3845 68.7362 20.4538C69.4265 20.523 70.0568 20.8548 70.6664 21.1801L73.4097 22.6438C73.4912 22.6873 73.5771 22.7349 73.622 22.8146C73.7065 22.9647 73.6109 23.1474 73.5195 23.2935C72.7535 24.5184 72.135 25.8354 71.727 27.2157C71.1103 29.3019 70.9827 31.4925 70.8588 33.6613L70.7497 35.5693ZM72.1581 18.6708C75.982 15.1618 80.2618 11.6817 85.4358 10.8945C88.1408 10.483 90.9354 10.8522 93.5209 11.734C86.8154 11.7911 80.216 15.079 76.2128 20.3572C75.5941 21.173 74.597 22.144 73.7074 21.6223C73.479 21.4884 73.2929 21.2657 73.1116 21.0487C72.8213 20.7012 72.5433 20.3683 72.1231 20.4385C71.7224 20.5054 71.4071 20.0302 71.4781 19.6375C71.5492 19.2449 71.8613 18.9432 72.1581 18.6708ZM71.542 64.7381C72.6476 65.3379 73.8159 65.8173 74.9815 66.2954L79.6906 68.227C78.7697 69.5818 77.8826 70.9587 77.0305 72.3562C73.8607 71.4796 70.8533 70.0411 68.1971 68.1309C68.9866 66.7289 69.7212 65.297 70.3986 63.8396C70.6758 64.2396 71.1106 64.504 71.542 64.7381ZM44.2499 63.3164C42.6205 65.4311 40.944 67.6469 40.439 70.2511C40.3403 70.7599 40.2865 71.2824 40.2327 71.804C40.1185 72.9127 40.0046 74.0178 39.4611 74.9811C39.1018 74.9721 38.8662 74.621 38.695 74.311L37.0448 71.3205C36.8221 70.9171 36.5955 70.5018 36.5362 70.0467C36.4772 69.5937 36.5889 69.1378 36.6997 68.6942L37.8788 63.9754C37.9051 63.8702 37.9326 63.7622 37.9966 63.6738C38.1548 63.4551 38.4698 63.4293 38.7432 63.424L44.2499 63.3164ZM81.5153 68.731C83.3025 69.7798 85.3417 70.4121 87.4187 70.5617C87.6852 70.1405 88.4215 70.142 88.6864 70.5642C88.2582 71.5681 87.7528 72.5403 87.1759 73.4698C86.9183 73.8849 86.3457 73.9611 85.8507 73.9779C83.4326 74.0602 81.0015 73.7641 78.6773 73.1043C78.5218 73.0601 78.3405 72.987 78.3122 72.8306C78.2932 72.7254 78.3541 72.6239 78.4125 72.5337L80.535 69.2578C80.7575 68.9143 81.1592 68.5221 81.5153 68.731ZM107.784 23.8505C107.843 24.1688 107.892 24.5279 107.697 24.7886C107.031 22.3432 105.75 20.0616 103.998 18.2029C103.681 17.8657 103.348 17.5421 102.994 17.242C102.968 17.2199 102.941 17.1978 102.915 17.1757L102.856 17.1264C102.5 16.8297 102.136 16.5261 101.956 16.1081L105.808 18.4092C106.162 18.6209 106.528 18.8429 106.76 19.1804C106.984 19.5058 107.06 19.9047 107.13 20.2911L107.784 23.8505ZM103.256 20.8304L102.345 20.1648C101.342 19.4325 100.145 18.6593 98.9371 18.9737C98.2358 19.1562 97.6867 19.6768 97.1714 20.1779L96.3708 20.9564C96.1521 21.1691 95.9281 21.3894 95.8088 21.6679C95.4648 22.4711 96.112 23.3443 96.7945 23.9017C97.2667 24.2874 97.8021 24.6364 98.4103 24.7225C99.197 24.8338 99.9739 24.4906 100.66 24.0968C101.599 23.5575 102.472 22.9058 103.251 22.1605C103.501 21.9222 103.76 21.6007 103.656 21.2749C103.594 21.0831 103.421 20.9504 103.256 20.8304ZM97.4712 23.0395C97.304 22.8868 97.1294 22.7226 97.0687 22.5065C96.95 22.0839 97.3036 21.6871 97.6275 21.3852L98.7787 20.3126C98.9528 20.1503 99.1345 19.9835 99.3618 19.9077C99.5892 19.8319 99.8762 19.874 100.012 20.0681C100.414 20.6409 101.117 20.9977 101.825 20.9884C102.054 20.9854 102.203 21.2593 102.154 21.4791C102.105 21.6989 101.927 21.8662 101.755 22.0147C101.139 22.5458 100.473 23.0216 99.769 23.4341C99.4867 23.5994 99.1837 23.7587 98.855 23.7674C98.3176 23.7816 97.8647 23.3989 97.4712 23.0395ZM89.6606 32.067C88.3662 32.5687 88.7536 34.9981 89.7161 36.0963C89.9141 36.3223 90.1863 36.5371 90.4873 36.4973C91.002 36.4291 91.1134 35.7547 91.0932 35.2456L91.0927 35.2337C91.0661 34.5628 90.9473 31.5684 89.6606 32.067ZM83.6128 36.967C83.714 36.2859 83.6171 35.5775 83.3365 34.9467C83.2062 34.6536 83.0283 34.3679 82.7572 34.1902C82.4862 34.0126 82.1057 33.9676 81.8377 34.1496C81.5951 34.3143 81.4964 34.6159 81.4374 34.8995C81.2291 35.9006 81.3256 36.9608 81.7113 37.91C81.8908 38.3515 82.5442 38.4476 82.9496 38.1873C83.3549 37.9269 83.543 37.4373 83.6128 36.967ZM87.171 34.539C87.3326 34.3162 87.6773 34.554 87.8296 34.783C88.3301 35.5357 88.7871 36.3161 89.1979 37.1194C89.4574 37.627 89.7028 38.1607 89.7272 38.728C89.7614 39.528 89.343 40.2954 88.7709 40.8663C88.1987 41.4373 87.4811 41.843 86.7732 42.2414C86.5862 42.3467 86.3434 42.4503 86.17 42.3246C86.0228 42.2179 86.0197 41.9913 86.1122 41.8364C86.2029 41.6844 86.3595 41.5843 86.5101 41.4881L86.519 41.4824C87.603 40.7891 88.6848 39.7665 88.6365 38.4979C88.61 37.8004 88.2456 37.1879 87.8797 36.5729C87.5464 36.0127 87.2119 35.4504 87.1302 34.8197C87.1177 34.7236 87.1137 34.6179 87.171 34.539ZM78.145 34.0158C77.7167 33.6724 77.7919 32.961 78.1703 32.5652C78.5486 32.1695 79.1229 32.0234 79.6712 31.9521C80.3257 31.8669 80.991 31.8622 81.6466 31.938C81.7862 31.9541 81.9391 31.9812 82.0276 32.0882C82.1917 32.2865 81.9924 32.6026 81.7408 32.6681C81.5382 32.7208 81.3287 32.6732 81.1217 32.6261L81.1216 32.6261C81.0714 32.6147 81.0214 32.6033 80.9717 32.5934C79.8509 32.3701 78.6141 32.9925 78.145 34.0158ZM89.5151 30.888C89.9646 30.6883 90.4924 30.6645 90.9587 30.8229C91.1537 30.8891 91.3403 30.6433 91.2882 30.4475C91.236 30.2517 91.0428 30.126 90.8533 30.046C90.4451 29.8737 89.9826 29.8276 89.5474 29.9159C89.2666 29.9729 88.9746 30.1053 88.853 30.3601C88.7314 30.6149 88.8912 30.9916 89.1779 30.9943C89.2803 30.9953 89.3755 30.9516 89.4692 30.9087L89.4939 30.8975L89.5151 30.888ZM86.9316 44.4058C87.0442 44.2979 87.2537 44.3803 87.3135 44.5231C87.3734 44.6659 87.3257 44.8298 87.2583 44.9693C86.9201 45.6693 86.1179 46.0673 85.3309 46.1296C84.5438 46.1918 83.7635 45.9717 83.0169 45.7195C82.6658 45.6009 82.3174 45.4747 81.972 45.3409C81.614 45.2023 81.2232 45.0203 81.0888 44.6665C80.9544 44.3127 81.3293 43.8227 81.6679 44.0021C82.5003 44.443 83.3506 44.8902 84.2816 45.0544C85.2127 45.2185 86.2552 45.0546 86.9316 44.4058ZM73.4721 51.0412C69.0943 45.8526 66.1368 39.5212 64.9888 32.8803C64.9692 32.7668 64.9513 32.6445 65.0031 32.5412C65.0762 32.3956 65.2935 32.3441 65.4263 32.441C66.3586 36.0155 67.2983 39.611 68.8464 42.9736C70.3945 46.3362 72.5988 49.4872 75.648 51.6469C75.7309 51.7056 75.8145 51.7637 75.8983 51.8218L75.9227 51.8388L75.9233 51.8392C76.4452 52.2012 76.9716 52.5664 77.3483 53.069C75.8452 53.4315 74.4592 52.2111 73.4721 51.0412ZM68.9433 23.629C68.8773 23.588 68.8046 23.5556 68.7273 23.5444C68.5043 23.512 68.2935 23.66 68.1529 23.8329C67.5926 24.5221 67.9116 25.7081 68.7456 26.0363C69.0079 25.664 69.2762 25.2783 69.3688 24.8349C69.4614 24.3915 69.333 23.8712 68.9433 23.629ZM76.656 28.301C77.5708 28.7035 78.5561 28.9513 79.5554 29.0304C82.7804 29.2856 85.9169 27.7767 88.4142 25.7586C88.7958 25.4503 89.378 25.4081 89.8016 25.6582C88.3223 27.4117 86.2761 28.6978 84.034 29.2831C83.5396 29.4122 83.0368 29.508 82.5328 29.5944C81.5016 29.7714 80.4519 29.91 79.4098 29.8114C78.3678 29.7129 77.3237 29.3584 76.5586 28.6574L76.656 28.301ZM119.32 58.8788C119.317 58.9848 119.423 59.058 119.517 59.1108L120.933 59.9083C120.97 59.5629 120.734 59.2337 120.433 59.0511C120.131 58.8684 119.774 58.8029 119.426 58.7407C119.366 58.759 119.321 58.8173 119.32 58.8788Z" fill="#000F45"/>
<ellipse cx="78.0445" cy="42.8027" rx="1.25259" ry="1.21135" fill="#FFB61D"/>
<ellipse cx="90.5172" cy="42.7845" rx="1.21616" ry="1.19318" fill="#FFB61D"/>
</svg>
