<svg width="333" height="102" viewBox="0 0 333 102" fill="none" xmlns="http://www.w3.org/2000/svg">
<path d="M238.2 75.6001C239.3 84.1001 243.4 88.8001 250.6 90.3001C256.9 91.7001 262.9 90.8001 268.8 88.4001C273 86.7001 275.5 87.2001 276.6 89.8001C277.7 92.4001 276.4 94.6001 272.3 96.6001C263.3 101.1 253.9 101.5 244.5 98.6001C235.9 96.0001 230.7 89.7001 228.7 81.0001C227 73.6001 227.2 66.2001 230 59.0001C233.7 49.3001 241.9 43.6001 252.4 43.4001C263.3 43.2001 271.6 47.6001 276.1 57.7001C277.7 61.2001 278.4 65.3001 278.8 69.2001C279.2 73.6001 277.4 75.3001 272.9 75.4001C263.4 75.5001 253.8 75.5001 244.3 75.5001C242.4 75.6001 240.5 75.6001 238.2 75.6001ZM268.3 67.1001C267.9 57.6001 260.9 51.5001 251.8 52.3001C243.7 52.9001 237.6 59.7001 238.6 67.1001C248.4 67.1001 258.2 67.1001 268.3 67.1001Z" fill="white"/>
<path d="M194.2 73.5C194.3 79 192.7 85.1 188.7 90.3C181.6 99.5 171.7 101.6 160.9 99.9C150.8 98.3 144 92.2 140.9 82.4C138.7 75.5 138.7 68.6 140.9 61.8C145 48.8 157.6 41.5 171.8 43.9C186 46.2 194.4 56.9 194.2 73.5ZM184.3 72.1C184 70.1 183.9 68 183.5 66C181.4 57.3 174.8 52.4 165.7 52.9C157.1 53.3 151 58.8 149.9 67.7C149.5 70.9 149.6 74.4 150.1 77.6C151.4 85.2 157.6 90.5 165.2 91.1C176.2 91.9 184.1 84.1 184.3 72.1Z" fill="white"/>
<path d="M1.2998 35.1001C1.2998 31.3001 1.2998 28.1001 1.2998 24.4001C3.1998 24.6001 4.7998 24.6001 6.2998 24.8001C10.1998 25.3001 14.1998 25.9001 18.0998 26.2001C25.8998 27.0001 28.3998 27.9001 35.0998 32.5001C35.9998 31.9001 36.9998 31.2001 38.0998 30.6001C39.8998 29.6001 41.5998 28.3001 43.5998 27.8001C51.9998 25.5001 60.6998 25.2001 69.6998 24.1001C69.6998 27.9001 69.6998 31.1001 69.6998 34.9001C64.2998 35.6001 58.9998 36.2001 53.6998 37.0001C51.7998 37.3001 49.8998 37.4001 48.0998 37.9001C43.1998 39.2001 40.9998 42.0001 40.9998 47.1001C40.9998 61.9001 40.9998 76.7001 40.9998 91.4001C40.9998 92.8001 41.0998 94.3001 40.8998 95.7001C40.3998 98.5001 38.5998 100 35.5998 100.1C32.2998 100.2 30.2998 98.7001 29.7998 95.8001C29.5998 94.4001 29.6998 92.9001 29.6998 91.5001C29.6998 76.9001 29.6998 62.3001 29.6998 47.6001C29.6998 41.9001 27.1998 38.8001 21.4998 37.8001C16.6998 37.1001 11.9998 36.6001 7.1998 36.0001C5.3998 35.7001 3.4998 35.4001 1.2998 35.1001Z" fill="white"/>
<path d="M92 91.7001C90.2 93.1001 88.9 94.2001 87.5 95.2001C83.9 98.0001 80 99.8001 75.3 100.2C63.2 101.2 54.2 94.2001 53.5 82.2001C52.9 71.3001 53.2 60.3001 53.3 49.3001C53.3 46.0001 55.4 44.2001 58.3 44.2001C61.3 44.2001 63.1 46.0001 63.2 49.4001C63.3 58.3001 63.2 67.2001 63.3 76.1001C63.3 78.3001 63.5 80.6001 63.9 82.7001C64.9 87.6001 67.7 90.1001 72.6 90.9001C79.2 91.9001 88.7 87.2001 91.6 81.2001C92.2 80.0001 92.2 78.4001 92.2 77.0001C92.3 68.6001 92.2 60.1001 92.2 51.7001C92.2 50.4001 92.1 49.1001 92.4 47.9001C92.8 45.5001 94.6 44.1001 97.1 44.1001C99.6 44.1001 101.5 45.4001 102 47.8001C102.3 49.2001 102.2 50.6001 102.2 52.1001C102.2 65.3001 102.2 78.5001 102.2 91.7001C102.2 92.8001 102.3 93.9001 102.1 95.0001C101.7 97.9001 99.7 99.8001 97.1 99.8001C94.7 99.8001 92.8 98.1001 92.3 95.4001C92.2 94.4001 92.2 93.4001 92 91.7001Z" fill="white"/>
<path d="M113.7 53.1998C110.9 53.1998 109 53.2998 107.1 53.1998C104.3 52.8998 103.5 51.1998 105.4 48.9998C107.4 46.6998 109.6 44.6998 111.8 42.5998C114.4 39.9998 116.9 37.3998 119.7 34.9998C121.8 33.1998 123.7 33.8998 123.9 36.6998C124.1 38.9998 123.9 41.3998 123.9 44.1998C125.9 44.2998 127.4 44.3998 129 44.4998C131.2 44.5998 133.5 44.3998 135.7 44.5998C138.4 44.7998 140 46.4998 140.1 48.6998C140.2 51.0998 138.4 52.9998 135.6 53.1998C132 53.3998 128.4 53.1998 124.5 53.1998C124.3 54.7998 124.1 55.7998 124.1 56.8998C124.1 66.0998 124 75.2998 124.1 84.4998C124.1 89.9998 125.8 91.4998 131.4 91.2998C133 91.1998 134.5 90.7998 136.1 90.5998C138.5 90.3998 140.4 91.4998 140.9 93.4998C141.5 95.6998 140.5 97.1998 138.7 98.2998C133.8 101.5 122.6 101 118.3 97.0998C116.6 95.5998 115.3 93.3998 114.6 91.1998C113.8 88.9998 113.8 86.4998 113.7 84.1998C113.6 75.7998 113.7 67.3998 113.7 58.9998C113.7 57.2998 113.7 55.5998 113.7 53.1998Z" fill="white"/>
<path d="M312.2 60.4999C312.2 70.9999 312.2 81.3999 312.2 91.8999C312.2 93.1999 312.3 94.4999 312 95.6999C311.5 98.1999 309.3 99.8999 306.9 99.8999C304.6 99.8999 302.8 98.3999 302.2 95.8999C301.9 94.4999 301.9 93.0999 301.9 91.5999C301.9 70.6999 301.9 49.6999 301.9 28.7999C301.9 27.1999 302 25.5999 302.4 24.0999C303 21.8999 304.7 20.6999 307 20.5999C309.3 20.4999 311.4 21.9999 311.9 24.2999C312.2 25.6999 312.2 27.0999 312.2 28.5999C312.2 39.1999 312.2 49.8999 312.2 60.4999Z" fill="white"/>
<path d="M210.3 52C212.4 50.2 213.9 48.7 215.5 47.5C218.4 45.2 221.7 43.7 225.5 43.5C229.3 43.3 231.8 45.1 231.9 48.2C232 51.1 230 53 226.2 53.2C220.8 53.4 216.4 55.5 212.6 59.2C210.7 61.1 209.9 63.3 209.9 66C210 74.7 210 83.4999 209.9 92.1999C209.9 93.4999 209.9 94.7999 209.6 96C209.1 98.2999 207 99.8 204.7 99.8C202.4 99.8 200.5 98.4 199.9 95.9C199.6 94.5 199.6 93.0999 199.6 91.5999C199.6 78.3999 199.6 65.2 199.6 52C199.6 50.7 199.6 49.4 199.8 48.2C200.3 45.6 201.9 44.2 204.3 44C206.9 43.8 208.9 45.2 209.6 47.9C210.1 49.1 210.1 50.2 210.3 52Z" fill="white"/>
<path d="M293.4 60.7C293.4 71 293.4 81.4 293.4 91.7C293.4 92.8 293.5 93.9 293.3 95C293 97.9 291 99.8 288.4 99.8C285.9 99.8 283.9 98.1 283.5 95.5C283.3 94.3 283.4 93 283.4 91.7C283.4 70.7 283.4 49.7 283.4 28.7C283.4 27.3 283.3 25.8 283.7 24.4C284.3 21.9 286.6 20.3 289 20.6C291.4 20.8 293 22.4 293.3 24.9C293.5 26.2 293.4 27.4 293.4 28.7C293.4 39.4 293.4 50.1 293.4 60.7Z" fill="white"/>
<path d="M330.6 71.6999C330.6 78.9999 330.7 86.2999 330.5 93.5999C330.5 95.0999 330.2 96.9999 329.3 97.9999C328.2 99.0999 326.3 99.6999 324.7 99.6999C322.7 99.6999 321.3 98.0999 320.8 96.0999C320.5 94.8999 320.6 93.5999 320.6 92.2999C320.6 78.7999 320.6 65.2999 320.6 51.7999C320.6 50.6999 320.5 49.5999 320.7 48.4999C321.2 45.5999 323.3 43.9999 326.1 44.1999C328.7 44.3999 330.4 45.8999 330.5 48.7999C330.7 53.5999 330.6 58.2999 330.6 63.0999C330.6 65.9999 330.6 68.7999 330.6 71.6999Z" fill="white"/>
<path d="M35.6998 21.7001C29.8998 21.8001 25.2998 17.4001 25.1998 11.8001C24.9998 6.10011 29.4998 1.50011 35.1998 1.40011C40.9998 1.30011 45.5998 5.70011 45.6998 11.3001C45.8998 17.0001 41.3998 21.6001 35.6998 21.7001Z" fill="#F56564" stroke="#F46562" stroke-miterlimit="10"/>
<path d="M331.3 28.2C331.2 31.5 328.6 33.9 325.4 33.8C322.3 33.6 319.8 30.9 320 27.7C320.2 24.7 322.6 22.5 325.7 22.5C329.1 22.5 331.4 24.8 331.3 28.2Z" fill="#F56564" stroke="#F46562" stroke-miterlimit="10"/>
</svg>
