<svg width="18" height="19" viewBox="0 0 18 19" fill="none" xmlns="http://www.w3.org/2000/svg">
<g clip-path="url(#clip0_103_3717)">
<path fill-rule="evenodd" clip-rule="evenodd" d="M4.5 2C4.10218 2 3.72064 2.15804 3.43934 2.43934C3.15804 2.72064 3 3.10218 3 3.5V15.5C3 15.8978 3.15804 16.2794 3.43934 16.5607C3.72064 16.842 4.10218 17 4.5 17H12.75C13.3467 17 13.919 16.7629 14.341 16.341C14.7629 15.919 15 15.3467 15 14.75V4.25C15 3.65326 14.7629 3.08097 14.341 2.65901C13.919 2.23705 13.3467 2 12.75 2H4.5ZM7.5 3.5H4.5V15.5H12.75C12.9489 15.5 13.1397 15.421 13.2803 15.2803C13.421 15.1397 13.5 14.9489 13.5 14.75V4.25C13.5 4.05109 13.421 3.86032 13.2803 3.71967C13.1397 3.57902 12.9489 3.5 12.75 3.5H12V10.232C12 10.907 11.184 11.2445 10.707 10.7675L9.75 9.8105L8.793 10.7675C8.316 11.2445 7.5 10.907 7.5 10.232V3.5ZM10.5 3.5H9V8.4395L9.2145 8.225C9.35655 8.08302 9.54916 8.00327 9.75 8.00327C9.95084 8.00327 10.1435 8.08302 10.2855 8.225L10.5 8.4395V3.5Z" fill="#667080"/>
</g>
<defs>
<clipPath id="clip0_103_3717">
<rect width="18" height="18" fill="white" transform="translate(0 0.5)"/>
</clipPath>
</defs>
</svg>
