<svg width="41" height="40" viewBox="0 0 41 40" fill="white" xmlns="http://www.w3.org/2000/svg">
<path d="M34.25 6.5625H6.75C6.16984 6.5625 5.61344 6.79297 5.2032 7.2032C4.79297 7.61344 4.5625 8.16984 4.5625 8.75V31.25C4.5625 31.8302 4.79297 32.3866 5.2032 32.7968C5.61344 33.207 6.16984 33.4375 6.75 33.4375H8.84219C9.01959 33.4374 9.19334 33.3871 9.34325 33.2922C9.49316 33.1973 9.61307 33.0619 9.68906 32.9016C10.3221 31.5646 11.3218 30.4348 12.5718 29.6436C13.8218 28.8525 15.2707 28.4325 16.75 28.4325C18.2293 28.4325 19.6782 28.8525 20.9282 29.6436C22.1782 30.4348 23.1779 31.5646 23.8109 32.9016C23.8869 33.0619 24.0068 33.1973 24.1567 33.2922C24.3067 33.3871 24.4804 33.4374 24.6578 33.4375H34.25C34.8302 33.4375 35.3866 33.207 35.7968 32.7968C36.207 32.3866 36.4375 31.8302 36.4375 31.25V8.75C36.4375 8.16984 36.207 7.61344 35.7968 7.2032C35.3866 6.79297 34.8302 6.5625 34.25 6.5625ZM12.6875 22.5C12.6875 21.6965 12.9258 20.9111 13.3722 20.243C13.8185 19.5749 14.453 19.0542 15.1953 18.7467C15.9377 18.4393 16.7545 18.3588 17.5426 18.5156C18.3306 18.6723 19.0545 19.0592 19.6226 19.6274C20.1908 20.1955 20.5777 20.9194 20.7344 21.7074C20.8912 22.4955 20.8107 23.3123 20.5033 24.0547C20.1958 24.797 19.6751 25.4315 19.007 25.8778C18.3389 26.3242 17.5535 26.5625 16.75 26.5625C15.6726 26.5625 14.6392 26.1345 13.8774 25.3726C13.1155 24.6108 12.6875 23.5774 12.6875 22.5ZM34.5625 31.25C34.5625 31.3329 34.5296 31.4124 34.471 31.471C34.4124 31.5296 34.3329 31.5625 34.25 31.5625H25.2297C24.1365 29.6004 22.3989 28.0763 20.3109 27.2484C21.3083 26.501 22.0451 25.4586 22.417 24.269C22.7889 23.0795 22.7771 21.803 22.3831 20.6206C21.9892 19.4381 21.2331 18.4096 20.2221 17.6808C19.2111 16.952 17.9963 16.5598 16.75 16.5598C15.5037 16.5598 14.2889 16.952 13.2779 17.6808C12.2669 18.4096 11.5108 19.4381 11.1169 20.6206C10.7229 21.803 10.7111 23.0795 11.083 24.269C11.4549 25.4586 12.1917 26.501 13.1891 27.2484C11.1011 28.0763 9.36347 29.6004 8.27031 31.5625H6.75C6.66712 31.5625 6.58763 31.5296 6.52903 31.471C6.47042 31.4124 6.4375 31.3329 6.4375 31.25V8.75C6.4375 8.66712 6.47042 8.58763 6.52903 8.52903C6.58763 8.47042 6.66712 8.4375 6.75 8.4375H34.25C34.3329 8.4375 34.4124 8.47042 34.471 8.52903C34.5296 8.58763 34.5625 8.66712 34.5625 8.75V31.25ZM31.4375 12.5V27.5C31.4375 27.7486 31.3387 27.9871 31.1629 28.1629C30.9871 28.3387 30.7486 28.4375 30.5 28.4375H28C27.7514 28.4375 27.5129 28.3387 27.3371 28.1629C27.1613 27.9871 27.0625 27.7486 27.0625 27.5C27.0625 27.2514 27.1613 27.0129 27.3371 26.8371C27.5129 26.6613 27.7514 26.5625 28 26.5625H29.5625V13.4375H11.4375V15C11.4375 15.2486 11.3387 15.4871 11.1629 15.6629C10.9871 15.8387 10.7486 15.9375 10.5 15.9375C10.2514 15.9375 10.0129 15.8387 9.83709 15.6629C9.66127 15.4871 9.5625 15.2486 9.5625 15V12.5C9.5625 12.2514 9.66127 12.0129 9.83709 11.8371C10.0129 11.6613 10.2514 11.5625 10.5 11.5625H30.5C30.7486 11.5625 30.9871 11.6613 31.1629 11.8371C31.3387 12.0129 31.4375 12.2514 31.4375 12.5Z" fill="#000F45"/>
</svg>
