<svg width="40" height="40" viewBox="0 0 40 40" fill="none" xmlns="http://www.w3.org/2000/svg">
<path d="M33.75 6.5625H6.25C5.66984 6.5625 5.11344 6.79297 4.7032 7.2032C4.29297 7.61344 4.0625 8.16984 4.0625 8.75V31.25C4.0625 31.8302 4.29297 32.3866 4.7032 32.7968C5.11344 33.207 5.66984 33.4375 6.25 33.4375H8.34219C8.51959 33.4374 8.69334 33.3871 8.84325 33.2922C8.99316 33.1973 9.11307 33.0619 9.18906 32.9016C9.82214 31.5646 10.8218 30.4348 12.0718 29.6436C13.3218 28.8525 14.7707 28.4325 16.25 28.4325C17.7293 28.4325 19.1782 28.8525 20.4282 29.6436C21.6782 30.4348 22.6779 31.5646 23.3109 32.9016C23.3869 33.0619 23.5068 33.1973 23.6567 33.2922C23.8067 33.3871 23.9804 33.4374 24.1578 33.4375H33.75C34.3302 33.4375 34.8866 33.207 35.2968 32.7968C35.707 32.3866 35.9375 31.8302 35.9375 31.25V8.75C35.9375 8.16984 35.707 7.61344 35.2968 7.2032C34.8866 6.79297 34.3302 6.5625 33.75 6.5625ZM12.1875 22.5C12.1875 21.6965 12.4258 20.9111 12.8722 20.243C13.3185 19.5749 13.953 19.0542 14.6953 18.7467C15.4377 18.4393 16.2545 18.3588 17.0426 18.5156C17.8306 18.6723 18.5545 19.0592 19.1226 19.6274C19.6908 20.1955 20.0777 20.9194 20.2344 21.7074C20.3912 22.4955 20.3107 23.3123 20.0033 24.0547C19.6958 24.797 19.1751 25.4315 18.507 25.8778C17.8389 26.3242 17.0535 26.5625 16.25 26.5625C15.1726 26.5625 14.1392 26.1345 13.3774 25.3726C12.6155 24.6108 12.1875 23.5774 12.1875 22.5ZM34.0625 31.25C34.0625 31.3329 34.0296 31.4124 33.971 31.471C33.9124 31.5296 33.8329 31.5625 33.75 31.5625H24.7297C23.6365 29.6004 21.8989 28.0763 19.8109 27.2484C20.8083 26.501 21.5451 25.4586 21.917 24.269C22.2889 23.0795 22.2771 21.803 21.8831 20.6206C21.4892 19.4381 20.7331 18.4096 19.7221 17.6808C18.7111 16.952 17.4963 16.5598 16.25 16.5598C15.0037 16.5598 13.7889 16.952 12.7779 17.6808C11.7669 18.4096 11.0108 19.4381 10.6169 20.6206C10.2229 21.803 10.2111 23.0795 10.583 24.269C10.9549 25.4586 11.6917 26.501 12.6891 27.2484C10.6011 28.0763 8.86347 29.6004 7.77031 31.5625H6.25C6.16712 31.5625 6.08763 31.5296 6.02903 31.471C5.97042 31.4124 5.9375 31.3329 5.9375 31.25V8.75C5.9375 8.66712 5.97042 8.58763 6.02903 8.52903C6.08763 8.47042 6.16712 8.4375 6.25 8.4375H33.75C33.8329 8.4375 33.9124 8.47042 33.971 8.52903C34.0296 8.58763 34.0625 8.66712 34.0625 8.75V31.25ZM30.9375 12.5V27.5C30.9375 27.7486 30.8387 27.9871 30.6629 28.1629C30.4871 28.3387 30.2486 28.4375 30 28.4375H27.5C27.2514 28.4375 27.0129 28.3387 26.8371 28.1629C26.6613 27.9871 26.5625 27.7486 26.5625 27.5C26.5625 27.2514 26.6613 27.0129 26.8371 26.8371C27.0129 26.6613 27.2514 26.5625 27.5 26.5625H29.0625V13.4375H10.9375V15C10.9375 15.2486 10.8387 15.4871 10.6629 15.6629C10.4871 15.8387 10.2486 15.9375 10 15.9375C9.75136 15.9375 9.5129 15.8387 9.33709 15.6629C9.16127 15.4871 9.0625 15.2486 9.0625 15V12.5C9.0625 12.2514 9.16127 12.0129 9.33709 11.8371C9.5129 11.6613 9.75136 11.5625 10 11.5625H30C30.2486 11.5625 30.4871 11.6613 30.6629 11.8371C30.8387 12.0129 30.9375 12.2514 30.9375 12.5Z" fill="#000F45"/>
</svg>
