<svg width="41" height="41" viewBox="0 0 41 41" fill="none" xmlns="http://www.w3.org/2000/svg">
<g clip-path="url(#clip0_103_630)">
<path d="M17.7057 12.9199C15.7582 14.3959 13.9157 16.0055 12.1914 17.7371C4.06571 25.8628 -0.0485717 34.9171 2.99714 37.9656C6.04286 41.0114 15.1 36.8942 23.2229 28.7714C24.9545 27.0462 26.5641 25.2027 28.04 23.2542" stroke="#000F45" stroke-width="2.85714" stroke-linecap="round" stroke-linejoin="round"/>
<path d="M28.04 23.2542C32.8314 29.6142 34.7829 35.5971 32.4171 37.9628C29.3686 41.0114 20.3143 36.8942 12.1886 28.7714C4.06857 20.6428 -0.0457154 11.5914 3 8.54281C5.36571 6.17996 11.3486 8.13138 17.7086 12.92" stroke="#000F45" stroke-width="2.85714" stroke-linecap="round" stroke-linejoin="round"/>
<path d="M16.2771 23.2543C16.2771 23.6331 16.4276 23.9965 16.6955 24.2644C16.9635 24.5323 17.3268 24.6828 17.7057 24.6828C18.0846 24.6828 18.4479 24.5323 18.7159 24.2644C18.9838 23.9965 19.1343 23.6331 19.1343 23.2543C19.1343 22.8754 18.9838 22.512 18.7159 22.2441C18.4479 21.9762 18.0846 21.8257 17.7057 21.8257C17.3268 21.8257 16.9635 21.9762 16.6955 22.2441C16.4276 22.512 16.2771 22.8754 16.2771 23.2543ZM23.4486 10.8143C22.5486 10.6571 22.5486 9.36855 23.4486 9.21427C25.0381 8.93776 26.5093 8.19414 27.6746 7.07822C28.8399 5.96231 29.6464 4.52465 29.9914 2.94855L30.0428 2.69998C30.2371 1.81427 31.5 1.80855 31.7 2.69141L31.7686 2.97998C32.1265 4.54911 32.9401 5.97747 34.1073 7.08564C35.2744 8.19382 36.743 8.93238 38.3286 9.20855C39.2314 9.3657 39.2314 10.6628 38.3286 10.8171C36.743 11.0933 35.2744 11.8319 34.1073 12.94C32.9401 14.0482 32.1265 15.4766 31.7686 17.0457L31.7 17.3343C31.5 18.22 30.2371 18.2143 30.0428 17.3286L29.9857 17.08C29.6407 15.5039 28.8341 14.0662 27.6689 12.9503C26.5036 11.8344 25.0324 11.0908 23.4428 10.8143H23.4486Z" stroke="#000F45" stroke-width="2.85714" stroke-linecap="round" stroke-linejoin="round"/>
</g>
<defs>
<clipPath id="clip0_103_630">
<rect width="40" height="40" fill="white" transform="translate(0.5 0.5)"/>
</clipPath>
</defs>
</svg>
