<svg width="33" height="33" viewBox="0 0 33 33" fill="none" xmlns="http://www.w3.org/2000/svg">
<path d="M26.188 18.5212C26.4966 18.2823 26.7465 17.9759 26.9184 17.6255C27.0902 17.2752 27.1796 16.8901 27.1796 16.4998C27.1796 16.1096 27.0902 15.7245 26.9184 15.3741C26.7465 15.0237 26.4966 14.7173 26.188 14.4785C22.1914 11.386 17.7286 8.94846 12.9667 7.25715L12.096 6.94782C10.432 6.35715 8.67334 7.48248 8.448 9.20115C7.81852 14.0466 7.81852 18.9531 8.448 23.7985C8.67467 25.5172 10.432 26.6425 12.096 26.0518L12.9667 25.7425C17.7286 24.0512 22.1914 21.6136 26.188 18.5212Z" fill="white"/>
</svg>
