<svg width="16" height="16" viewBox="0 0 16 16" fill="none" xmlns="http://www.w3.org/2000/svg">
<path fill-rule="evenodd" clip-rule="evenodd" d="M5.41319 4.37333C5.41319 3.10506 6.67399 2.05333 7.99986 2.05333C9.32572 2.05333 10.5865 3.10506 10.5865 4.37333C10.5865 5.54559 9.99239 6.09493 9.19346 6.80426L9.16039 6.83306C8.36786 7.53599 7.38652 8.40533 7.38652 10.1333C7.38652 10.2139 7.40239 10.2936 7.43321 10.368C7.46403 10.4425 7.50921 10.5101 7.56616 10.567C7.62312 10.624 7.69073 10.6692 7.76514 10.7C7.83956 10.7308 7.91931 10.7467 7.99986 10.7467C8.0804 10.7467 8.16016 10.7308 8.23457 10.7C8.30898 10.6692 8.3766 10.624 8.43355 10.567C8.4905 10.5101 8.53568 10.4425 8.5665 10.368C8.59733 10.2936 8.61319 10.2139 8.61319 10.1333C8.61319 8.97599 9.20412 8.43306 10.0073 7.72266L10.0287 7.70133C10.8265 6.99519 11.8132 6.12053 11.8132 4.37333C11.8132 2.26986 9.83346 0.82666 7.99986 0.82666C6.16626 0.82666 4.18652 2.26986 4.18652 4.37333C4.18652 4.45387 4.20239 4.53363 4.23321 4.60804C4.26403 4.68245 4.30921 4.75007 4.36616 4.80702C4.42312 4.86397 4.49073 4.90915 4.56514 4.93997C4.63956 4.9708 4.71931 4.98666 4.79986 4.98666C4.8804 4.98666 4.96016 4.9708 5.03457 4.93997C5.10898 4.90915 5.1766 4.86397 5.23355 4.80702C5.2905 4.75007 5.33568 4.68245 5.3665 4.60804C5.39733 4.53363 5.41319 4.45387 5.41319 4.37333ZM7.99986 14.2485C8.24739 14.2485 8.48479 14.1502 8.65982 13.9752C8.83486 13.8001 8.93319 13.5627 8.93319 13.3152C8.93319 13.0677 8.83486 12.8303 8.65982 12.6552C8.48479 12.4802 8.24739 12.3819 7.99986 12.3819C7.75232 12.3819 7.51492 12.4802 7.33989 12.6552C7.16486 12.8303 7.06652 13.0677 7.06652 13.3152C7.06652 13.5627 7.16486 13.8001 7.33989 13.9752C7.51492 14.1502 7.75232 14.2485 7.99986 14.2485Z" fill="#001044" fill-opacity="0.8"/>
</svg>
