<svg width="41" height="41" viewBox="0 0 41 41" fill="none" xmlns="http://www.w3.org/2000/svg">
<path d="M3.61954 26.0906L3.25157 25.4554C3.12837 25.2422 3.04839 25.0068 3.01619 24.7626C2.98399 24.5185 3.0002 24.2704 3.0639 24.0325C3.12759 23.7946 3.23753 23.5716 3.38742 23.3762C3.53732 23.1808 3.72424 23.0169 3.9375 22.8937L10.7242 18.982C10.8665 18.8995 11.0237 18.846 11.1867 18.8243C11.3497 18.8027 11.5154 18.8135 11.6743 18.856C11.8332 18.8985 11.9821 18.972 12.1125 19.0722C12.243 19.1724 12.3523 19.2973 12.4344 19.4398L13.4273 21.1586C13.5929 21.4457 13.6377 21.7868 13.5519 22.1069C13.466 22.427 13.2566 22.6999 12.9695 22.8656L6.18438 26.7773C5.75306 27.0258 5.2408 27.093 4.75997 26.9643C4.27914 26.8356 3.869 26.5213 3.61954 26.0906Z" stroke="#000F45" stroke-width="2.5" stroke-linecap="round" stroke-linejoin="round"/>
<path d="M10.468 38L17.9789 21.7508M21.7344 20.5015L29.293 35.5M13.8344 21.8844L11.9938 18.7031C11.7453 18.2723 11.6782 17.7605 11.8071 17.2802C11.9361 16.8 12.2505 16.3906 12.6813 16.1422L22.4047 10.5367C22.547 10.4542 22.7041 10.4006 22.8672 10.379C23.0302 10.3574 23.1959 10.3681 23.3548 10.4107C23.5137 10.4532 23.6626 10.5267 23.793 10.6269C23.9234 10.727 24.0328 10.852 24.1148 10.9945L26.5813 15.2594C26.7467 15.5462 26.7916 15.887 26.7061 16.2069C26.6205 16.5267 26.4115 16.7996 26.125 16.9656L16.3992 22.5703C16.1859 22.694 15.9502 22.7743 15.7057 22.8068C15.4612 22.8393 15.2127 22.8232 14.9745 22.7595C14.7362 22.6957 14.5129 22.5857 14.3173 22.4355C14.1216 22.2853 13.9575 22.098 13.8344 21.8844ZM27.207 16.2976L23.5734 10.014C23.325 9.58327 23.2579 9.07145 23.3868 8.59119C23.5157 8.11092 23.8302 7.70154 24.2609 7.4531L31.5492 3.25154C31.9806 3.00297 32.4929 2.93559 32.9738 3.06418C33.4548 3.19276 33.8651 3.50681 34.1148 3.93748L37.7484 10.2211C37.8716 10.4344 37.9515 10.6699 37.9835 10.9141C38.0156 11.1583 37.9993 11.4065 37.9354 11.6444C37.8716 11.8823 37.7615 12.1053 37.6115 12.3006C37.4614 12.4959 37.2743 12.6598 37.0609 12.7828L29.7727 16.9844C29.3413 17.2331 28.8288 17.3004 28.3478 17.1717C27.8668 17.0429 27.4565 16.7286 27.207 16.2976Z" stroke="#000F45" stroke-width="2.5" stroke-linecap="round" stroke-linejoin="round"/>
</svg>
