<svg width="32" height="32" viewBox="0 0 32 32" fill="none" xmlns="http://www.w3.org/2000/svg">
<mask id="mask0_103_938" style="mask-type:luminance" maskUnits="userSpaceOnUse" x="0" y="0" width="32" height="32">
<path d="M0 0H32V32H0V0Z" fill="white"/>
</mask>
<g mask="url(#mask0_103_938)">
<path fill-rule="evenodd" clip-rule="evenodd" d="M32 16C32 24.836 24.836 32 16 32C7.164 32 0 24.836 0 16C0 7.164 7.164 0 16 0C24.836 0 32 7.164 32 16ZM8 21.6H20V12.8C20 12.4848 19.9379 12.1727 19.8173 11.8816C19.6967 11.5904 19.5199 11.3258 19.2971 11.1029C19.0742 10.8801 18.8096 10.7033 18.5184 10.5827C18.2273 10.4621 17.9152 10.4 17.6 10.4H5.6V19.2C5.6 19.8365 5.85286 20.447 6.30294 20.8971C6.5258 21.1199 6.79038 21.2967 7.08156 21.4173C7.37274 21.5379 7.68483 21.6 8 21.6ZM21.6 18.4L26.4 21.6V10.4L21.6 13.6V18.4Z" fill="#285FEF"/>
</g>
</svg>
